<svg width="616" height="421" viewBox="0 0 616 421" fill="none" xmlns="http://www.w3.org/2000/svg">
<path d="M404.809 241.403L398.765 237.904L404.809 234.404L410.854 237.904L404.809 241.403Z" fill="white"/>
<path d="M391.978 248.826L385.934 245.327L391.978 241.828L398.023 245.327L391.978 248.826Z" fill="white"/>
<path d="M379.253 256.25L373.208 252.75L379.253 249.251L385.297 252.75L379.253 256.25Z" fill="white"/>
<path d="M366.422 263.567L360.377 260.067L366.422 256.568L372.466 260.067L366.422 263.567Z" fill="white"/>
<path d="M353.59 270.99L347.545 267.49L353.59 263.991L359.634 267.49L353.59 270.99Z" fill="white"/>
<g opacity="0.05">
<g filter="url(#filter0_f_104_30)">
<path d="M439.43 385.773C439.493 374.47 371.272 364.921 287.053 364.446C202.834 363.971 134.509 372.749 134.445 384.053C134.381 395.356 202.603 404.904 286.822 405.379C371.041 405.855 439.366 397.076 439.43 385.773Z" fill="black"/>
<path d="M439.319 385.77C439.383 374.525 371.446 365.026 287.578 364.553C203.71 364.08 135.671 372.812 135.607 384.057C135.544 395.302 203.481 404.801 287.348 405.274C371.216 405.747 439.256 397.015 439.319 385.77Z" fill="black"/>
<path d="M439.204 385.765C439.267 374.579 371.852 365.13 288.629 364.66C205.405 364.191 137.888 372.879 137.825 384.065C137.762 395.251 205.177 404.7 288.4 405.169C371.624 405.639 439.141 396.951 439.204 385.765Z" fill="black"/>
<path d="M439.093 385.762C439.156 374.635 372.026 365.235 289.154 364.767C206.281 364.3 139.049 372.942 138.987 384.069C138.924 395.197 206.054 404.597 288.926 405.064C371.798 405.532 439.03 396.89 439.093 385.762Z" fill="black"/>
<path d="M438.978 385.758C439.04 374.747 372.431 365.445 290.204 364.981C207.976 364.517 141.267 373.067 141.205 384.078C141.142 395.088 207.751 404.39 289.979 404.854C372.207 405.318 438.916 396.768 438.978 385.758Z" fill="black"/>
<path d="M438.868 385.755C438.93 374.744 372.606 365.444 290.73 364.982C208.853 364.52 142.429 373.071 142.367 384.082C142.305 395.092 208.628 404.393 290.505 404.855C372.381 405.316 438.805 396.765 438.868 385.755Z" fill="black"/>
<path d="M438.757 385.752C438.819 374.8 372.78 365.549 291.255 365.089C209.73 364.629 143.59 373.134 143.529 384.086C143.467 395.038 209.506 404.289 291.031 404.749C372.556 405.209 438.695 396.704 438.757 385.752Z" fill="black"/>
<path d="M438.752 385.75C438.814 374.856 373.012 365.654 291.78 365.196C210.547 364.737 144.646 373.197 144.584 384.09C144.523 394.984 210.325 404.186 291.557 404.644C372.789 405.102 438.691 396.643 438.752 385.75Z" fill="black"/>
<path d="M438.531 385.744C438.592 374.909 373.359 365.757 292.83 365.303C212.301 364.849 146.969 373.264 146.908 384.099C146.847 394.934 212.079 404.085 292.609 404.54C373.138 404.994 438.47 396.579 438.531 385.744Z" fill="black"/>
<path d="M438.421 385.741C438.481 374.965 373.533 365.862 293.355 365.41C213.177 364.958 148.131 373.327 148.07 384.103C148.009 394.879 212.957 403.982 293.135 404.434C373.313 404.887 438.36 396.517 438.421 385.741Z" fill="black"/>
<path d="M438.416 385.739C438.477 375.021 373.766 365.967 293.881 365.517C213.995 365.066 149.187 373.389 149.126 384.107C149.066 394.825 213.777 403.878 293.662 404.329C373.547 404.78 438.356 396.457 438.416 385.739Z" fill="black"/>
<path d="M438.305 385.736C438.366 375.077 373.939 366.072 294.406 365.623C214.872 365.175 150.348 373.452 150.288 384.111C150.228 394.77 214.654 403.775 294.188 404.224C373.722 404.672 438.245 396.395 438.305 385.736Z" fill="black"/>
<path d="M151.469 384.14C151.363 394.744 215.52 403.758 294.735 404.182C373.951 404.606 438.214 396.335 438.214 385.73C438.32 375.126 374.163 366.112 294.947 365.688C215.732 365.264 151.469 373.429 151.469 384.14Z" fill="black"/>
<path d="M438.19 385.731C438.25 375.13 374.346 366.176 295.456 365.731C216.567 365.286 152.566 373.519 152.506 384.12C152.446 394.72 216.35 403.674 295.24 404.119C374.129 404.564 438.13 396.332 438.19 385.731Z" fill="black"/>
<path d="M438.079 385.728C438.139 375.186 374.519 366.281 295.981 365.838C217.443 365.395 153.727 373.582 153.668 384.124C153.608 394.666 217.228 403.571 295.766 404.014C374.304 404.457 438.02 396.27 438.079 385.728Z" fill="black"/>
<path d="M437.969 385.726C438.028 375.242 374.693 366.386 296.506 365.945C218.32 365.504 154.889 373.645 154.83 384.128C154.771 394.612 218.106 403.468 296.292 403.909C374.479 404.35 437.91 396.209 437.969 385.726Z" fill="black"/>
<path d="M437.964 385.723C438.023 375.298 374.925 366.491 297.031 366.052C219.138 365.612 155.944 373.707 155.886 384.132C155.827 394.557 218.925 403.364 296.818 403.804C374.712 404.243 437.906 396.148 437.964 385.723Z" fill="black"/>
<path d="M437.96 385.721C438.018 375.296 375.206 366.491 297.663 366.053C220.121 365.616 157.212 373.712 157.153 384.137C157.095 394.562 219.908 403.367 297.45 403.805C374.993 404.242 437.901 396.146 437.96 385.721Z" fill="black"/>
<path d="M437.849 385.718C437.908 375.352 375.379 366.595 298.188 366.16C220.997 365.724 158.374 373.775 158.316 384.141C158.257 394.508 220.785 403.264 297.977 403.7C375.168 404.135 437.791 396.084 437.849 385.718Z" fill="black"/>
<path d="M437.739 385.715C437.797 375.408 375.553 366.7 298.713 366.267C221.874 365.833 159.535 373.838 159.477 384.146C159.419 394.453 221.663 403.161 298.503 403.594C375.342 404.028 437.68 396.023 437.739 385.715Z" fill="black"/>
<path d="M437.734 385.713C437.792 375.464 375.785 366.805 299.238 366.374C222.692 365.942 160.591 373.9 160.533 384.15C160.476 394.399 222.482 403.057 299.029 403.489C375.576 403.921 437.676 395.962 437.734 385.713Z" fill="black"/>
<path d="M437.624 385.71C437.681 375.461 375.96 366.804 299.764 366.374C223.569 365.945 161.753 373.905 161.695 384.154C161.637 394.403 223.359 403.06 299.555 403.49C375.75 403.92 437.566 395.96 437.624 385.71Z" fill="black"/>
<path d="M162.816 384.139C162.71 394.32 224.215 402.909 300.037 403.334C375.859 403.758 437.471 395.804 437.471 385.624C437.577 375.444 376.071 366.854 300.249 366.43C224.428 366.112 162.816 373.959 162.816 384.139Z" fill="black"/>
<path d="M437.508 385.705C437.565 375.573 376.365 367.014 300.814 366.588C225.263 366.162 163.97 374.03 163.913 384.162C163.856 394.294 225.056 402.853 300.607 403.279C376.158 403.706 437.451 395.837 437.508 385.705Z" fill="black"/>
<path d="M437.398 385.703C437.455 375.629 376.539 367.119 301.339 366.695C226.139 366.271 165.132 374.093 165.075 384.166C165.018 394.24 225.934 402.75 301.134 403.174C376.333 403.598 437.341 395.776 437.398 385.703Z" fill="black"/>
<path d="M166.209 384.246C166.103 394.32 226.76 402.803 301.628 403.228C376.495 403.652 437.259 395.804 437.259 385.836C437.365 375.762 376.708 367.278 301.84 366.854C226.972 366.324 166.209 374.171 166.209 384.246Z" fill="black"/>
<path d="M437.176 385.697C437.233 375.682 376.887 367.223 302.39 366.803C227.893 366.382 167.455 374.16 167.399 384.175C167.342 394.19 227.688 402.65 302.185 403.07C376.682 403.49 437.12 395.712 437.176 385.697Z" fill="black"/>
<path d="M437.172 385.695C437.228 375.738 377.119 367.328 302.915 366.909C228.711 366.491 168.511 374.223 168.455 384.179C168.399 394.135 228.507 402.546 302.712 402.964C376.916 403.383 437.116 395.651 437.172 385.695Z" fill="black"/>
<path d="M437.061 385.692C437.117 375.794 377.293 367.433 303.44 367.016C229.587 366.599 169.672 374.285 169.616 384.183C169.561 394.081 229.385 402.442 303.238 402.859C377.091 403.276 437.005 395.59 437.061 385.692Z" fill="black"/>
<path d="M436.951 385.689C437.007 375.791 377.467 367.431 303.966 367.017C230.465 366.602 170.835 374.29 170.779 384.187C170.723 394.085 230.262 402.445 303.764 402.86C377.265 403.274 436.895 395.587 436.951 385.689Z" fill="black"/>
<path d="M436.946 385.687C437.001 375.848 377.699 367.537 304.491 367.124C231.282 366.711 171.89 374.352 171.834 384.191C171.779 394.03 231.081 402.342 304.29 402.755C377.498 403.168 436.89 395.526 436.946 385.687Z" fill="black"/>
<path d="M436.836 385.684C436.891 375.903 377.873 367.641 305.016 367.23C232.159 366.819 173.052 374.415 172.997 384.196C172.941 393.976 231.959 402.238 304.816 402.649C377.673 403.06 436.781 395.465 436.836 385.684Z" fill="black"/>
<path d="M436.725 385.681C436.78 375.959 378.047 367.746 305.541 367.337C233.035 366.928 174.213 374.478 174.158 384.2C174.104 393.922 232.837 402.135 305.342 402.544C377.848 402.953 436.67 395.403 436.725 385.681Z" fill="black"/>
<path d="M436.721 385.679C436.775 376.016 378.279 367.852 306.066 367.444C233.853 367.037 175.269 374.541 175.214 384.204C175.16 393.868 233.656 402.032 305.869 402.439C378.082 402.846 436.666 395.343 436.721 385.679Z" fill="black"/>
<path d="M176.389 384.246C176.283 393.896 234.502 402.061 306.4 402.485C378.298 402.909 436.517 395.38 436.623 385.73C436.729 376.08 378.51 367.915 306.612 367.49C234.714 367.066 176.389 374.595 176.389 384.246Z" fill="black"/>
<path d="M436.499 385.673C436.554 376.068 378.627 367.955 307.117 367.552C235.607 367.148 177.592 374.608 177.538 384.213C177.484 393.818 235.411 401.931 306.921 402.334C378.431 402.738 436.445 395.278 436.499 385.673Z" fill="black"/>
<path d="M436.389 385.671C436.442 376.125 378.801 368.06 307.642 367.659C236.483 367.257 178.754 374.671 178.7 384.217C178.646 393.764 236.288 401.828 307.447 402.229C378.605 402.631 436.335 395.217 436.389 385.671Z" fill="black"/>
<path d="M179.783 384.246C179.677 393.79 237.153 401.743 307.991 402.167C378.829 402.591 436.305 395.168 436.411 385.624C436.517 376.08 379.041 368.127 308.203 367.703C237.259 367.384 179.783 374.808 179.783 384.246Z" fill="black"/>
<path d="M180.949 384.246C180.843 393.684 238.001 401.743 308.521 402.061C379.041 402.485 436.199 395.062 436.305 385.624C436.411 376.186 379.253 368.127 308.733 367.809C238.213 367.491 180.949 374.808 180.949 384.246Z" fill="black"/>
<path d="M182.01 384.246C181.904 393.684 238.85 401.637 308.945 402.061C379.147 402.485 436.093 395.168 436.093 385.73C436.199 376.292 379.253 368.339 309.157 367.915C239.062 367.491 182.116 374.808 182.01 384.246Z" fill="black"/>
<path d="M183.176 384.246C183.176 393.577 239.698 401.531 309.582 401.955C379.465 402.379 436.093 395.062 436.093 385.73C436.199 376.398 379.571 368.445 309.688 368.021C239.91 367.597 183.282 374.914 183.176 384.246Z" fill="black"/>
<path d="M436.048 385.658C436.1 376.346 379.787 368.479 310.268 368.087C240.749 367.695 184.35 374.926 184.298 384.238C184.245 393.55 240.559 401.417 310.078 401.809C379.597 402.201 435.995 394.97 436.048 385.658Z" fill="black"/>
<path d="M185.403 384.246C185.403 393.577 241.395 401.425 310.536 401.743C379.677 402.167 435.881 394.956 435.881 385.624C435.881 376.292 379.889 368.445 310.748 368.127C241.607 367.809 185.509 375.02 185.403 384.246Z" fill="black"/>
<path d="M435.826 385.652C435.878 376.399 380.134 368.583 311.318 368.194C242.502 367.806 186.674 374.993 186.621 384.246C186.569 393.5 242.313 401.316 311.129 401.704C379.945 402.093 435.774 394.906 435.826 385.652Z" fill="black"/>
<path d="M435.821 385.756C435.873 376.561 380.366 368.794 311.843 368.407C243.32 368.021 187.729 375.161 187.677 384.356C187.625 393.551 243.132 401.319 311.655 401.705C380.178 402.092 435.769 394.951 435.821 385.756Z" fill="black"/>
<path d="M188.797 384.352C188.797 393.471 243.94 401.213 312.127 401.637C380.313 402.061 435.563 394.956 435.669 385.73C435.669 376.61 380.525 368.869 312.339 368.445C244.152 368.021 188.903 375.126 188.797 384.352Z" fill="black"/>
<path d="M189.963 384.352C189.963 393.471 244.894 401.107 312.657 401.531C380.419 401.955 435.562 394.85 435.562 385.73C435.562 376.61 380.631 368.975 312.869 368.551C245.106 368.127 190.069 375.232 189.963 384.352Z" fill="black"/>
<path d="M435.596 385.748C435.647 376.671 380.946 369.003 313.419 368.622C245.891 368.241 191.108 375.291 191.057 384.369C191.005 393.447 245.706 401.115 313.233 401.496C380.761 401.876 435.544 394.826 435.596 385.748Z" fill="black"/>
<path d="M435.485 385.745C435.536 376.726 381.12 369.107 313.944 368.728C246.768 368.349 192.269 375.354 192.219 384.373C192.168 393.392 246.584 401.011 313.76 401.39C380.936 401.769 435.434 394.765 435.485 385.745Z" fill="black"/>
<path d="M193.357 384.352C193.357 393.365 247.439 400.895 314.248 401.319C381.056 401.743 435.351 394.744 435.351 385.73C435.351 376.716 381.268 369.187 314.46 368.763C247.652 368.445 193.463 375.338 193.357 384.352Z" fill="black"/>
<path d="M194.523 384.352C194.523 393.259 248.394 400.788 314.884 401.213C381.374 401.637 435.35 394.638 435.35 385.73C435.35 376.822 381.48 369.293 314.99 368.869C248.5 368.445 194.523 375.444 194.523 384.352Z" fill="black"/>
<path d="M435.259 385.737C435.309 376.835 381.7 369.316 315.52 368.943C249.339 368.569 195.648 375.483 195.598 384.386C195.548 393.288 249.157 400.807 315.338 401.18C381.518 401.554 435.209 394.64 435.259 385.737Z" fill="black"/>
<path d="M435.149 385.735C435.199 376.891 381.874 369.421 316.045 369.05C250.216 368.678 196.81 375.547 196.76 384.39C196.71 393.234 250.035 400.704 315.864 401.075C381.693 401.447 435.099 394.578 435.149 385.735Z" fill="black"/>
<path d="M435.038 385.732C435.088 376.947 382.048 369.526 316.57 369.157C251.092 368.787 197.972 375.609 197.922 384.394C197.873 393.179 250.913 400.601 316.39 400.97C381.868 401.339 434.989 394.517 435.038 385.732Z" fill="black"/>
<path d="M435.033 385.73C435.082 377.003 382.28 369.631 317.095 369.263C251.91 368.896 199.027 375.672 198.978 384.398C198.929 393.125 251.731 400.497 316.916 400.865C382.101 401.232 434.984 394.456 435.033 385.73Z" fill="black"/>
<path d="M434.923 385.727C434.972 377.001 382.454 369.63 317.621 369.264C252.787 368.898 200.189 375.676 200.14 384.403C200.091 393.129 252.609 400.5 317.442 400.865C382.276 401.231 434.874 394.454 434.923 385.727Z" fill="black"/>
<path d="M434.918 385.725C434.967 377.057 382.734 369.735 318.252 369.372C253.77 369.008 201.457 375.74 201.408 384.408C201.359 393.075 253.593 400.397 318.075 400.761C382.557 401.125 434.87 394.393 434.918 385.725Z" fill="black"/>
<path d="M202.476 384.352C202.476 392.941 254.438 400.258 318.595 400.576C382.752 400.895 434.82 394.214 434.82 385.624C434.82 377.035 382.858 369.717 318.701 369.399C254.544 369.081 202.476 375.762 202.476 384.352Z" fill="black"/>
<path d="M203.537 384.352C203.537 392.941 255.181 400.152 319.019 400.47C382.858 400.788 434.608 394.214 434.714 385.624C434.714 377.034 383.07 369.823 319.232 369.505C255.393 369.187 203.643 375.868 203.537 384.352Z" fill="black"/>
<path d="M434.693 385.717C434.741 377.166 383.314 369.944 319.827 369.586C256.341 369.228 204.836 375.869 204.788 384.42C204.74 392.971 256.166 400.193 319.653 400.551C383.139 400.909 434.644 394.268 434.693 385.717Z" fill="black"/>
<path d="M205.87 384.458C205.87 392.941 256.983 400.152 320.186 400.47C383.388 400.789 434.608 394.214 434.608 385.73C434.608 377.247 383.494 370.036 320.292 369.718C257.089 369.293 205.87 375.974 205.87 384.458Z" fill="black"/>
<path d="M206.93 384.458C206.93 392.941 257.726 400.046 320.61 400.364C383.388 400.682 434.396 394.214 434.502 385.73C434.502 377.247 383.707 370.142 320.822 369.824C258.044 369.399 207.036 375.974 206.93 384.458Z" fill="black"/>
<path d="M208.097 384.458C208.097 392.835 258.68 399.94 321.14 400.258C383.601 400.576 434.29 394.108 434.396 385.73C434.396 377.353 383.813 370.248 321.352 369.93C258.892 369.505 208.203 376.08 208.097 384.458Z" fill="black"/>
<path d="M209.263 384.458C209.263 392.835 259.529 399.834 321.777 400.152C383.919 400.47 434.396 394.002 434.396 385.73C434.396 377.353 384.131 370.354 321.883 370.035C259.741 369.611 209.263 376.08 209.263 384.458Z" fill="black"/>
<path d="M434.352 385.704C434.398 377.387 384.3 370.363 322.453 370.014C260.607 369.665 210.432 376.124 210.385 384.441C210.338 392.757 260.437 399.782 322.283 400.131C384.13 400.48 434.305 394.02 434.352 385.704Z" fill="black"/>
<path d="M434.241 385.701C434.288 377.444 384.474 370.468 322.978 370.121C261.483 369.774 211.594 376.187 211.547 384.445C211.501 392.703 261.315 399.679 322.81 400.026C384.305 400.373 434.195 393.959 434.241 385.701Z" fill="black"/>
<path d="M212.657 384.458C212.657 392.623 262.18 399.622 323.261 399.94C384.449 400.258 434.078 393.896 434.078 385.73C434.078 377.565 384.555 370.566 323.473 370.248C262.286 369.823 212.657 376.186 212.657 384.458Z" fill="black"/>
<path d="M434.02 385.696C434.066 377.555 384.821 370.678 324.029 370.335C263.236 369.992 213.917 376.313 213.871 384.454C213.825 392.595 263.07 399.472 323.862 399.815C384.655 400.158 433.974 393.837 434.02 385.696Z" fill="black"/>
<path d="M434.015 385.693C434.061 377.553 385.054 370.677 324.554 370.335C264.055 369.994 214.973 376.317 214.927 384.458C214.881 392.598 263.888 399.474 324.388 399.816C384.887 400.157 433.969 393.834 434.015 385.693Z" fill="black"/>
<path d="M216.05 384.458C216.05 392.517 264.725 399.304 324.852 399.728C384.979 400.046 433.76 393.79 433.866 385.73C433.866 377.671 385.191 370.884 325.064 370.46C264.937 370.142 216.05 376.398 216.05 384.458Z" fill="black"/>
<path d="M217.217 384.458C217.217 392.517 265.679 399.304 325.488 399.622C385.298 399.94 433.866 393.684 433.866 385.73C433.866 377.671 385.404 370.884 325.594 370.566C265.785 370.248 217.217 376.398 217.217 384.458Z" fill="black"/>
<path d="M433.789 385.686C433.834 377.721 385.633 370.991 326.129 370.656C266.625 370.32 218.352 376.505 218.307 384.47C218.262 392.435 266.463 399.164 325.967 399.5C385.471 399.836 433.745 393.651 433.789 385.686Z" fill="black"/>
<path d="M433.679 385.683C433.724 377.718 385.808 370.99 326.655 370.657C267.502 370.323 219.513 376.509 219.469 384.475C219.424 392.44 267.34 399.167 326.492 399.501C385.645 399.834 433.634 393.648 433.679 385.683Z" fill="black"/>
<path d="M220.61 384.458C220.61 392.305 268.224 398.986 326.973 399.304C385.828 399.622 433.548 393.471 433.548 385.624C433.548 377.777 385.934 371.096 327.185 370.778C268.33 370.46 220.61 376.61 220.61 384.458Z" fill="black"/>
<path d="M221.67 384.458C221.67 392.305 268.966 398.986 327.503 399.304C385.934 399.622 433.442 393.578 433.442 385.73C433.442 377.883 386.146 371.202 327.609 370.884C269.178 370.566 221.776 376.61 221.67 384.458Z" fill="black"/>
<path d="M433.453 385.675C433.497 377.886 386.387 371.305 328.231 370.977C270.074 370.649 222.893 376.698 222.849 384.487C222.805 392.276 269.914 398.857 328.071 399.185C386.228 399.513 433.409 393.465 433.453 385.675Z" fill="black"/>
<path d="M224.003 384.458C224.003 392.199 270.769 398.774 328.563 399.092C386.358 399.41 433.23 393.366 433.336 385.624C433.336 377.883 386.57 371.308 328.776 370.99C270.981 370.672 224.003 376.717 224.003 384.458Z" fill="black"/>
<path d="M225.064 384.564C225.064 392.305 271.618 398.774 329.094 399.092C386.57 399.41 433.23 393.471 433.23 385.73C433.23 377.989 386.676 371.52 329.2 371.202C271.83 370.778 225.17 376.822 225.064 384.564Z" fill="black"/>
<path d="M433.227 385.667C433.27 377.995 386.967 371.514 329.806 371.192C272.645 370.869 226.271 376.827 226.228 384.5C226.185 392.172 272.488 398.653 329.649 398.975C386.81 399.298 433.184 393.34 433.227 385.667Z" fill="black"/>
<path d="M433.117 385.664C433.16 378.051 387.141 371.619 330.331 371.298C273.522 370.978 227.433 376.89 227.39 384.504C227.347 392.118 273.366 398.55 330.176 398.87C386.986 399.19 433.074 393.278 433.117 385.664Z" fill="black"/>
<path d="M433.006 385.662C433.049 378.107 387.315 371.724 330.856 371.405C274.398 371.087 228.595 376.953 228.552 384.508C228.509 392.063 274.243 398.446 330.702 398.765C387.16 399.083 432.963 393.217 433.006 385.662Z" fill="black"/>
<path d="M433.001 385.66C433.044 378.104 387.547 371.723 331.382 371.406C275.216 371.089 229.651 376.957 229.608 384.512C229.565 392.067 275.062 398.449 331.228 398.766C387.393 399.082 432.959 393.215 433.001 385.66Z" fill="black"/>
<path d="M230.79 384.564C230.79 392.093 275.965 398.35 331.745 398.668C387.524 398.986 432.805 393.153 432.911 385.624C432.911 378.095 387.736 371.838 331.957 371.52C276.071 371.202 230.79 377.035 230.79 384.564Z" fill="black"/>
<path d="M432.78 385.654C432.822 378.216 387.895 371.933 332.432 371.62C276.969 371.307 231.974 377.083 231.932 384.521C231.89 391.959 276.817 398.242 332.28 398.555C387.743 398.868 432.738 393.092 432.78 385.654Z" fill="black"/>
<path d="M233.017 384.564C233.017 391.987 277.662 398.244 332.805 398.562C387.949 398.88 432.699 393.153 432.699 385.73C432.699 378.307 388.055 372.05 333.017 371.732C277.874 371.414 233.123 377.141 233.017 384.564Z" fill="black"/>
<path d="M432.665 385.649C432.707 378.269 388.301 372.036 333.482 371.727C278.664 371.418 234.191 377.149 234.149 384.529C234.108 391.908 278.513 398.141 333.332 398.45C388.15 398.76 432.623 393.028 432.665 385.649Z" fill="black"/>
<path d="M432.555 385.646C432.596 378.325 388.475 372.141 334.008 371.834C279.541 371.527 235.353 377.212 235.312 384.533C235.27 391.854 279.391 398.038 333.858 398.345C388.326 398.652 432.513 392.967 432.555 385.646Z" fill="black"/>
<path d="M432.444 385.643C432.485 378.381 388.649 372.246 334.533 371.941C280.417 371.636 236.514 377.275 236.473 384.538C236.432 391.8 280.269 397.935 334.384 398.24C388.5 398.545 432.403 392.906 432.444 385.643Z" fill="black"/>
<path d="M432.439 385.641C432.48 378.437 388.881 372.352 335.058 372.048C281.235 371.744 237.57 377.338 237.529 384.542C237.489 391.745 281.088 397.831 334.911 398.135C388.734 398.439 432.399 392.845 432.439 385.641Z" fill="black"/>
<path d="M238.744 384.564C238.744 391.775 282.01 397.819 335.456 398.137C388.903 398.456 432.275 392.835 432.381 385.73C432.381 378.519 389.115 372.475 335.668 372.157C282.116 371.838 238.744 377.459 238.744 384.564Z" fill="black"/>
<path d="M239.804 384.564C239.804 391.669 282.858 397.713 335.986 398.031C389.115 398.35 432.275 392.835 432.275 385.624C432.275 378.519 389.327 372.475 336.092 372.157C282.964 371.944 239.91 377.459 239.804 384.564Z" fill="black"/>
<path d="M432.214 385.633C432.254 378.547 389.461 372.56 336.634 372.262C283.806 371.964 240.949 377.468 240.909 384.554C240.869 391.641 283.662 397.627 336.489 397.925C389.316 398.223 432.174 392.72 432.214 385.633Z" fill="black"/>
<path d="M432.103 385.631C432.143 378.603 389.635 372.665 337.159 372.369C284.683 372.073 242.111 377.531 242.071 384.559C242.032 391.587 284.54 397.524 337.016 397.82C389.491 398.116 432.064 392.659 432.103 385.631Z" fill="black"/>
<path d="M243.303 384.564C243.303 391.563 285.509 397.501 337.577 397.819C389.751 398.137 431.957 392.729 432.063 385.73C432.169 378.731 389.857 372.793 337.789 372.475C285.615 372.157 243.303 377.565 243.303 384.564Z" fill="black"/>
<path d="M244.364 384.564C244.364 391.563 286.252 397.395 338.107 397.713C389.857 398.031 431.957 392.623 431.957 385.624C431.957 378.625 390.069 372.793 338.214 372.475C286.464 372.263 244.47 377.671 244.364 384.564Z" fill="black"/>
<path d="M431.877 385.623C431.916 378.712 390.215 372.874 338.735 372.583C287.254 372.293 245.49 377.66 245.451 384.571C245.412 391.482 287.113 397.32 338.593 397.61C390.074 397.9 431.838 392.533 431.877 385.623Z" fill="black"/>
<path d="M246.697 384.67C246.697 391.563 288.054 397.289 339.168 397.607C390.281 397.925 431.745 392.517 431.851 385.73C431.851 378.837 390.493 373.111 339.38 372.793C288.16 372.475 246.697 377.777 246.697 384.67Z" fill="black"/>
<path d="M247.757 384.67C247.757 391.457 288.903 397.289 339.698 397.501C390.493 397.819 431.745 392.517 431.745 385.624C431.745 378.837 390.599 373.005 339.804 372.793C289.009 372.475 247.863 377.777 247.757 384.67Z" fill="black"/>
<path d="M431.758 385.615C431.796 378.822 390.901 373.083 340.416 372.799C289.932 372.514 248.975 377.79 248.937 384.584C248.898 391.378 289.793 397.116 340.278 397.401C390.762 397.686 431.719 392.409 431.758 385.615Z" fill="black"/>
<path d="M431.647 385.612C431.685 378.877 391.075 373.188 340.942 372.905C290.809 372.622 250.137 377.853 250.099 384.588C250.061 391.323 290.671 397.013 340.804 397.296C390.938 397.578 431.609 392.348 431.647 385.612Z" fill="black"/>
<path d="M251.151 384.67C251.151 391.351 291.448 396.971 341.289 397.289C391.13 397.607 431.427 392.411 431.533 385.73C431.533 379.049 391.236 373.429 341.395 373.111C291.66 372.793 251.257 377.989 251.151 384.67Z" fill="black"/>
<path d="M431.425 385.713C431.463 379.095 391.422 373.504 341.991 373.225C292.561 372.946 252.459 378.085 252.422 384.703C252.385 391.321 292.426 396.912 341.856 397.191C391.286 397.47 431.388 392.331 431.425 385.713Z" fill="black"/>
<path d="M253.484 384.67C253.484 391.245 293.251 396.865 342.349 397.077C391.448 397.395 431.321 392.199 431.321 385.624C431.321 379.049 391.554 373.429 342.455 373.217C293.357 372.899 253.484 378.095 253.484 384.67Z" fill="black"/>
<path d="M431.31 385.708C431.347 379.149 391.828 373.608 343.042 373.333C294.256 373.058 254.676 378.152 254.64 384.712C254.603 391.271 294.122 396.812 342.908 397.087C391.694 397.362 431.273 392.268 431.31 385.708Z" fill="black"/>
<path d="M255.711 384.67C255.711 391.138 294.947 396.653 343.41 396.971C391.872 397.289 431.215 392.199 431.215 385.73C431.215 379.261 391.978 373.747 343.516 373.429C295.053 373.111 255.711 378.201 255.711 384.67Z" fill="black"/>
<path d="M256.877 384.67C256.877 391.139 295.796 396.547 343.94 396.865C392.084 397.183 431.109 392.093 431.109 385.624C431.109 379.155 392.19 373.747 344.046 373.429C295.902 373.217 256.877 378.201 256.877 384.67Z" fill="black"/>
<path d="M431.085 385.7C431.121 379.258 392.408 373.817 344.618 373.547C296.827 373.277 258.056 378.281 258.02 384.724C257.983 391.166 296.696 396.607 344.486 396.877C392.277 397.146 431.048 392.142 431.085 385.7Z" fill="black"/>
<path d="M430.974 385.697C431.01 379.314 392.582 373.922 345.143 373.654C297.704 373.386 259.217 378.345 259.181 384.728C259.145 391.112 297.573 396.504 345.012 396.772C392.452 397.039 430.938 392.081 430.974 385.697Z" fill="black"/>
<path d="M260.271 384.67C260.271 391.033 298.447 396.335 345.531 396.653C392.614 396.971 430.897 391.987 430.897 385.73C430.897 379.368 392.721 374.065 345.637 373.747C298.553 373.429 260.271 378.413 260.271 384.67Z" fill="black"/>
<path d="M261.437 384.67C261.437 390.926 299.295 396.229 346.061 396.547C392.827 396.759 430.791 391.881 430.791 385.624C430.791 379.368 392.933 374.065 346.167 373.747C299.401 373.535 261.437 378.413 261.437 384.67Z" fill="black"/>
<path d="M430.748 385.689C430.783 379.481 393.162 374.236 346.718 373.974C300.275 373.712 262.596 378.533 262.561 384.741C262.526 390.949 300.148 396.194 346.591 396.456C393.035 396.718 430.713 391.897 430.748 385.689Z" fill="black"/>
<path d="M263.664 384.67C263.664 390.82 300.992 396.123 347.121 396.335C393.251 396.547 430.684 391.775 430.684 385.624C430.684 379.474 393.357 374.171 347.227 373.959C301.098 373.747 263.664 378.519 263.664 384.67Z" fill="black"/>
<path d="M430.633 385.684C430.668 379.535 393.568 374.34 347.769 374.082C301.97 373.824 264.814 378.599 264.779 384.749C264.744 390.898 301.844 396.093 347.643 396.351C393.443 396.61 430.598 391.834 430.633 385.684Z" fill="black"/>
<path d="M265.891 384.776C265.891 390.926 302.689 396.017 348.076 396.335C393.569 396.547 430.366 391.881 430.472 385.73C430.472 379.58 393.675 374.49 348.288 374.171C302.795 373.853 265.997 378.625 265.891 384.776Z" fill="black"/>
<path d="M267.058 384.776C267.058 390.82 303.537 395.91 348.712 396.229C393.781 396.441 430.472 391.775 430.472 385.73C430.472 379.686 393.993 374.595 348.818 374.277C303.643 373.959 267.058 378.731 267.058 384.776Z" fill="black"/>
<path d="M268.224 384.776C268.224 390.82 304.491 395.911 349.242 396.123C393.993 396.335 430.366 391.669 430.366 385.73C430.366 379.686 394.099 374.596 349.348 374.384C304.597 374.065 268.224 378.731 268.224 384.776Z" fill="black"/>
<path d="M269.284 384.776C269.284 390.714 305.234 395.804 349.666 396.017C394.099 396.229 430.154 391.669 430.154 385.624C430.154 379.686 394.205 374.596 349.772 374.383C305.446 374.171 269.39 378.731 269.284 384.776Z" fill="black"/>
<path d="M270.451 384.776C270.451 390.714 306.188 395.698 350.303 395.91C394.417 396.123 430.154 391.563 430.26 385.624C430.26 379.686 394.523 374.701 350.409 374.489C306.294 374.277 270.451 378.837 270.451 384.776Z" fill="black"/>
<path d="M271.617 384.776C271.617 390.608 307.036 395.592 350.833 395.91C394.629 396.123 430.154 391.563 430.154 385.73C430.154 379.898 394.735 374.914 350.939 374.596C307.142 374.277 271.617 378.837 271.617 384.776Z" fill="black"/>
<path d="M430.071 385.666C430.104 379.809 394.902 374.863 351.445 374.618C307.989 374.373 272.733 378.922 272.7 384.778C272.667 390.635 307.869 395.582 351.326 395.827C394.782 396.072 430.038 391.523 430.071 385.666Z" fill="black"/>
<path d="M273.844 384.776C273.844 390.608 308.733 395.486 351.893 395.698C395.054 395.911 429.942 391.457 430.048 385.624C430.048 379.792 395.16 374.914 351.999 374.702C308.839 374.49 273.844 378.943 273.844 384.776Z" fill="black"/>
<path d="M275.011 384.776C275.011 390.502 309.582 395.38 352.424 395.592C395.16 395.804 429.942 391.351 429.942 385.624C429.942 379.898 395.372 375.02 352.53 374.808C309.688 374.595 275.011 379.049 275.011 384.776Z" fill="black"/>
<path d="M276.072 384.776C276.072 390.502 310.43 395.274 352.848 395.486C395.266 395.698 429.73 391.351 429.73 385.624C429.73 379.898 395.372 375.126 352.954 374.914C310.536 374.702 276.178 379.049 276.072 384.776Z" fill="black"/>
<path d="M429.735 385.656C429.767 379.975 395.656 375.177 353.547 374.939C311.437 374.702 277.274 379.114 277.242 384.795C277.21 390.476 311.321 395.274 353.43 395.512C395.54 395.749 429.703 391.337 429.735 385.656Z" fill="black"/>
<path d="M278.404 384.776C278.404 390.396 312.233 395.168 354.014 395.38C395.796 395.592 429.624 391.244 429.73 385.624C429.73 380.004 395.902 375.232 354.12 375.02C312.339 374.808 278.404 379.155 278.404 384.776Z" fill="black"/>
<path d="M279.571 384.776C279.571 390.29 313.081 395.062 354.544 395.274C396.008 395.486 429.624 391.139 429.624 385.624C429.624 380.11 396.114 375.338 354.65 375.126C313.187 374.914 279.571 379.262 279.571 384.776Z" fill="black"/>
<path d="M280.631 384.776C280.631 390.29 313.929 394.956 354.968 395.168C396.114 395.38 429.412 391.138 429.412 385.624C429.412 380.11 396.114 375.444 355.074 375.232C314.035 375.02 280.737 379.261 280.631 384.776Z" fill="black"/>
<path d="M281.798 384.776C281.798 390.29 314.778 394.85 355.605 395.062C396.326 395.274 429.412 391.032 429.518 385.518C429.518 380.004 396.538 375.444 355.711 375.232C314.884 375.126 281.798 379.368 281.798 384.776Z" fill="black"/>
<path d="M282.964 384.776C282.964 390.184 315.732 394.744 356.135 395.062C396.538 395.274 429.412 391.032 429.412 385.624C429.412 380.216 396.644 375.656 356.241 375.338C315.732 375.126 282.964 379.368 282.964 384.776Z" fill="black"/>
<path d="M284.025 384.776C284.025 390.184 316.475 394.744 356.559 394.956C396.644 395.168 429.2 391.032 429.2 385.624C429.2 380.216 396.75 375.656 356.665 375.444C316.581 375.232 284.131 379.474 284.025 384.776Z" fill="black"/>
<path d="M429.172 385.637C429.202 380.307 396.989 375.805 357.222 375.581C317.455 375.356 285.194 379.495 285.164 384.825C285.133 390.154 317.347 394.657 357.113 394.881C396.88 395.105 429.142 390.967 429.172 385.637Z" fill="black"/>
<path d="M286.358 384.882C286.358 390.184 318.277 394.638 357.726 394.85C397.174 395.062 429.2 390.926 429.2 385.624C429.2 380.322 397.28 375.868 357.832 375.656C318.383 375.444 286.358 379.579 286.358 384.882Z" fill="black"/>
<path d="M287.418 384.882C287.418 390.078 319.02 394.532 358.15 394.744C397.28 394.956 428.988 390.926 428.988 385.624C428.988 380.428 397.387 375.974 358.256 375.762C319.232 375.55 287.524 379.58 287.418 384.882Z" fill="black"/>
<path d="M288.584 384.882C288.584 390.078 319.974 394.532 358.68 394.744C397.492 394.956 428.882 390.926 428.882 385.73C428.882 380.534 397.492 376.08 358.786 375.868C320.08 375.656 288.584 379.686 288.584 384.882Z" fill="black"/>
<path d="M289.751 384.882C289.751 390.078 320.822 394.426 359.316 394.638C397.705 394.85 428.882 390.82 428.988 385.73C428.988 380.534 397.917 376.186 359.423 375.974C320.928 375.656 289.751 379.686 289.751 384.882Z" fill="black"/>
<path d="M428.831 385.624C428.86 380.529 398.023 376.224 359.954 376.01C321.886 375.795 291.002 379.751 290.973 384.847C290.944 389.942 321.782 394.247 359.85 394.461C397.919 394.676 428.802 390.72 428.831 385.624Z" fill="black"/>
<path d="M291.978 384.882C291.978 389.972 322.519 394.214 360.271 394.426C398.023 394.638 428.67 390.714 428.67 385.624C428.67 380.534 398.129 376.292 360.377 376.08C322.625 375.868 291.978 379.792 291.978 384.882Z" fill="black"/>
<path d="M293.145 384.882C293.145 389.866 323.473 394.108 360.907 394.32C398.341 394.532 428.67 390.608 428.776 385.624C428.776 380.64 398.447 376.398 361.013 376.186C323.473 375.974 293.145 379.898 293.145 384.882Z" fill="black"/>
<path d="M294.205 384.882C294.205 389.866 324.216 394.108 361.331 394.32C398.447 394.532 428.564 390.714 428.564 385.73C428.564 380.746 398.553 376.504 361.437 376.292C324.428 376.08 294.311 379.898 294.205 384.882Z" fill="black"/>
<path d="M428.601 385.614C428.629 380.695 398.835 376.538 362.055 376.331C325.275 376.123 295.437 379.943 295.409 384.863C295.381 389.783 325.175 393.939 361.955 394.146C398.735 394.354 428.573 390.534 428.601 385.614Z" fill="black"/>
<path d="M296.538 384.882C296.538 389.76 326.018 393.896 362.392 394.108C398.765 394.32 428.351 390.502 428.351 385.624C428.351 380.746 398.871 376.61 362.498 376.398C326.124 376.186 296.538 380.004 296.538 384.882Z" fill="black"/>
<path d="M297.705 384.882C297.705 389.76 326.867 393.79 363.028 394.002C399.083 394.214 428.352 390.396 428.458 385.624C428.458 380.746 399.295 376.716 363.134 376.504C326.973 376.292 297.705 380.004 297.705 384.882Z" fill="black"/>
<path d="M298.765 384.882C298.765 389.654 327.715 393.79 363.452 393.896C399.189 394.108 428.245 390.396 428.245 385.518C428.245 380.746 399.295 376.61 363.558 376.504C327.821 376.398 298.765 380.11 298.765 384.882Z" fill="black"/>
<path d="M299.932 384.882C299.932 389.654 328.564 393.683 363.983 393.896C399.402 394.108 428.14 390.396 428.14 385.624C428.14 380.852 399.508 376.822 364.089 376.61C328.67 376.504 299.932 380.11 299.932 384.882Z" fill="black"/>
<path d="M301.098 384.882C301.098 389.548 329.518 393.577 364.619 393.79C399.719 394.002 428.139 390.29 428.245 385.624C428.245 380.958 399.825 376.929 364.725 376.716C329.518 376.504 301.098 380.216 301.098 384.882Z" fill="black"/>
<path d="M302.158 384.882C302.158 389.548 330.26 393.472 365.043 393.684C399.825 393.896 428.033 390.29 428.033 385.624C428.033 380.958 399.931 377.035 365.149 376.822C330.366 376.61 302.264 380.216 302.158 384.882Z" fill="black"/>
<path d="M303.325 384.882C303.325 389.548 331.215 393.365 365.573 393.577C400.038 393.789 427.927 390.184 427.927 385.518C427.927 380.852 400.038 377.034 365.679 376.822C331.321 376.716 303.325 380.322 303.325 384.882Z" fill="black"/>
<path d="M304.491 384.988C304.491 389.548 332.063 393.471 366.209 393.577C400.356 393.684 427.927 390.184 427.927 385.624C427.927 381.064 400.356 377.141 366.209 377.035C332.169 376.822 304.491 380.322 304.491 384.988Z" fill="black"/>
<path d="M305.552 384.988C305.552 389.548 332.911 393.365 366.633 393.578C400.356 393.79 427.715 390.29 427.821 385.73C427.821 381.17 400.462 377.353 366.74 377.141C333.017 376.929 305.658 380.428 305.552 384.988Z" fill="black"/>
<path d="M306.718 384.988C306.718 389.442 333.76 393.259 367.164 393.471C400.568 393.684 427.715 390.184 427.715 385.73C427.715 381.276 400.674 377.459 367.27 377.247C333.866 376.929 306.718 380.428 306.718 384.988Z" fill="black"/>
<path d="M427.703 385.585C427.728 381.134 400.923 377.374 367.833 377.188C334.743 377.001 307.897 380.458 307.872 384.909C307.847 389.36 334.652 393.12 367.742 393.306C400.832 393.493 427.677 390.036 427.703 385.585Z" fill="black"/>
<path d="M308.945 384.988C308.945 389.336 335.457 393.047 368.224 393.259C400.992 393.471 427.503 390.078 427.609 385.624C427.609 381.276 401.098 377.565 368.33 377.353C335.563 377.141 309.051 380.534 308.945 384.988Z" fill="black"/>
<path d="M427.481 385.58C427.506 381.246 401.27 377.584 368.883 377.401C336.495 377.219 310.22 380.584 310.196 384.918C310.171 389.252 336.407 392.913 368.794 393.096C401.182 393.279 427.457 389.913 427.481 385.58Z" fill="black"/>
<path d="M311.278 384.988C311.278 389.336 337.259 392.941 369.285 393.153C401.31 393.366 427.397 389.972 427.397 385.73C427.397 381.383 401.416 377.777 369.391 377.565C337.259 377.353 311.278 380.64 311.278 384.988Z" fill="black"/>
<path d="M312.339 384.988C312.339 389.23 338.001 392.835 369.815 393.047C401.522 393.259 427.291 389.866 427.291 385.624C427.291 381.382 401.628 377.777 369.815 377.565C338.214 377.459 312.445 380.746 312.339 384.988Z" fill="black"/>
<path d="M313.505 384.988C313.505 389.23 338.956 392.729 370.345 392.941C401.734 393.153 427.291 389.866 427.291 385.624C427.291 381.382 401.84 377.883 370.451 377.671C339.062 377.459 313.505 380.746 313.505 384.988Z" fill="black"/>
<path d="M314.672 384.988C314.672 389.124 339.804 392.729 370.875 392.835C401.946 393.047 427.185 389.76 427.185 385.624C427.185 381.488 402.052 377.883 370.981 377.777C339.91 377.565 314.672 380.852 314.672 384.988Z" fill="black"/>
<path d="M315.838 384.988C315.838 389.124 340.759 392.623 371.512 392.729C402.265 392.941 427.185 389.654 427.185 385.518C427.185 381.382 402.265 377.883 371.512 377.777C340.759 377.671 315.838 380.852 315.838 384.988Z" fill="black"/>
<path d="M316.899 384.988C316.899 389.018 341.501 392.517 371.936 392.729C402.371 392.941 426.973 389.76 427.079 385.624C427.079 381.594 402.477 378.095 372.042 377.883C341.607 377.777 316.899 380.958 316.899 384.988Z" fill="black"/>
<path d="M318.065 384.988C318.065 389.018 342.455 392.411 372.466 392.623C402.583 392.835 426.973 389.654 426.973 385.624C426.973 381.594 402.583 378.201 372.572 377.989C342.455 377.883 318.065 380.958 318.065 384.988Z" fill="black"/>
<path d="M319.232 384.988C319.232 389.018 343.304 392.305 372.996 392.517C402.689 392.729 426.867 389.548 426.867 385.624C426.867 381.594 402.795 378.307 373.102 378.095C343.304 377.883 319.232 381.064 319.232 384.988Z" fill="black"/>
<path d="M320.292 384.988C320.292 388.912 344.046 392.305 373.526 392.411C402.901 392.623 426.761 389.548 426.867 385.518C426.867 381.595 403.113 378.201 373.632 378.095C344.152 377.989 320.398 381.064 320.292 384.988Z" fill="black"/>
<path d="M321.458 384.988C321.458 388.912 345 392.199 374.057 392.305C403.113 392.517 426.761 389.442 426.761 385.518C426.761 381.594 403.219 378.307 374.163 378.201C345.106 378.095 321.458 381.17 321.458 384.988Z" fill="black"/>
<path d="M426.688 385.657C426.71 381.792 403.416 378.527 374.66 378.365C345.903 378.202 322.574 381.204 322.552 385.07C322.531 388.935 345.825 392.2 374.581 392.362C403.337 392.525 426.666 389.523 426.688 385.657Z" fill="black"/>
<path d="M323.686 385.094C323.686 388.912 346.697 392.093 375.117 392.305C403.537 392.517 426.549 389.548 426.549 385.73C426.549 381.913 403.537 378.731 375.117 378.519C346.803 378.307 323.792 381.276 323.686 385.094Z" fill="black"/>
<path d="M324.852 385.094C324.852 388.912 347.546 392.093 375.647 392.199C403.749 392.305 426.443 389.442 426.549 385.624C426.549 381.807 403.855 378.625 375.753 378.519C347.652 378.307 324.852 381.276 324.852 385.094Z" fill="black"/>
<path d="M426.462 385.649C426.484 381.901 403.996 378.736 376.236 378.579C348.475 378.422 325.953 381.334 325.932 385.082C325.911 388.831 348.398 391.996 376.159 392.153C403.92 392.309 426.441 389.398 426.462 385.649Z" fill="black"/>
<path d="M327.079 385.094C327.079 388.806 349.242 391.881 376.708 391.987C404.067 392.093 426.337 389.336 426.337 385.624C426.337 381.913 404.173 378.837 376.708 378.731C349.348 378.519 327.185 381.382 327.079 385.094Z" fill="black"/>
<path d="M328.245 385.094C328.245 388.699 350.197 391.775 377.238 391.987C404.279 392.199 426.231 389.336 426.337 385.73C426.337 382.125 404.385 379.049 377.344 378.837C350.197 378.625 328.245 381.382 328.245 385.094Z" fill="black"/>
<path d="M329.412 385.094C329.412 388.699 351.045 391.669 377.768 391.881C404.491 391.987 426.23 389.23 426.23 385.624C426.23 382.019 404.597 379.049 377.874 378.837C351.151 378.731 329.412 381.488 329.412 385.094Z" fill="black"/>
<path d="M330.472 385.094C330.472 388.594 351.787 391.669 378.192 391.775C404.597 391.881 426.018 389.124 426.018 385.624C426.018 382.125 404.703 379.05 378.298 378.943C351.999 378.731 330.578 381.489 330.472 385.094Z" fill="black"/>
<path d="M331.639 385.094C331.639 388.593 352.742 391.563 378.829 391.669C404.916 391.775 426.018 389.124 426.018 385.624C426.018 382.125 404.916 379.155 378.829 379.049C352.848 378.837 331.639 381.594 331.639 385.094Z" fill="black"/>
<path d="M425.905 385.633C425.925 382.178 405.098 379.259 379.387 379.114C353.676 378.969 332.817 381.652 332.798 385.108C332.778 388.563 353.605 391.482 379.316 391.627C405.027 391.772 425.886 389.088 425.905 385.633Z" fill="black"/>
<path d="M333.972 385.094C333.972 388.487 354.544 391.351 379.889 391.563C405.234 391.669 425.912 389.018 425.912 385.624C425.912 382.231 405.34 379.368 379.995 379.156C354.544 379.049 333.972 381.701 333.972 385.094Z" fill="black"/>
<path d="M335.032 385.094C335.032 388.487 355.287 391.351 380.419 391.457C405.446 391.563 425.806 389.018 425.806 385.624C425.806 382.231 405.552 379.368 380.419 379.261C355.393 379.155 335.032 381.701 335.032 385.094Z" fill="black"/>
<path d="M336.199 385.094C336.199 388.381 356.241 391.245 380.95 391.351C405.658 391.457 425.7 388.912 425.806 385.624C425.806 382.337 405.764 379.474 381.056 379.368C356.241 379.262 336.199 381.807 336.199 385.094Z" fill="black"/>
<path d="M337.365 385.094C337.365 388.381 357.089 391.138 381.48 391.245C405.87 391.351 425.7 388.806 425.7 385.518C425.7 382.231 405.976 379.474 381.586 379.368C357.195 379.262 337.365 381.807 337.365 385.094Z" fill="black"/>
<path d="M338.426 385.094C338.426 388.275 357.938 391.033 382.01 391.139C406.082 391.245 425.594 388.806 425.594 385.518C425.594 382.337 406.082 379.58 382.01 379.474C357.938 379.368 338.426 381.913 338.426 385.094Z" fill="black"/>
<path d="M339.592 385.094C339.592 388.275 358.786 390.927 382.54 391.139C406.294 391.245 425.488 388.806 425.488 385.624C425.488 382.443 406.294 379.792 382.54 379.58C358.892 379.474 339.592 381.913 339.592 385.094Z" fill="black"/>
<path d="M340.759 385.094C340.759 388.275 359.741 390.926 383.071 391.032C406.507 391.139 425.488 388.699 425.488 385.624C425.488 382.443 406.506 379.792 383.177 379.686C359.741 379.58 340.759 382.019 340.759 385.094Z" fill="black"/>
<path d="M341.819 385.094C341.819 388.169 360.483 390.82 383.495 390.926C406.506 391.032 425.276 388.699 425.276 385.518C425.276 382.443 406.612 379.792 383.601 379.686C360.589 379.686 341.925 382.019 341.819 385.094Z" fill="black"/>
<path d="M342.986 385.094C342.986 388.169 361.331 390.714 384.131 390.82C406.824 390.927 425.276 388.594 425.276 385.518C425.276 382.443 406.931 379.898 384.131 379.792C361.437 379.686 342.986 382.125 342.986 385.094Z" fill="black"/>
<path d="M344.152 385.2C344.152 388.169 362.286 390.714 384.661 390.82C407.037 390.926 425.17 388.593 425.276 385.624C425.276 382.655 407.143 380.11 384.767 380.004C362.286 379.792 344.152 382.125 344.152 385.2Z" fill="black"/>
<path d="M425.219 385.605C425.235 382.618 407.35 380.096 385.27 379.972C363.191 379.847 345.278 382.167 345.261 385.154C345.244 388.141 363.13 390.663 385.209 390.788C407.289 390.913 425.202 388.592 425.219 385.605Z" fill="black"/>
<path d="M346.379 385.2C346.379 388.169 363.982 390.608 385.721 390.714C407.461 390.82 425.064 388.593 425.064 385.624C425.064 382.761 407.461 380.216 385.721 380.11C363.982 380.004 346.379 382.231 346.379 385.2Z" fill="black"/>
<path d="M347.545 385.2C347.545 388.063 364.831 390.502 386.252 390.608C407.673 390.714 424.958 388.487 424.958 385.624C424.958 382.761 407.673 380.322 386.252 380.216C364.937 380.11 347.545 382.337 347.545 385.2Z" fill="black"/>
<path d="M348.712 385.2C348.712 388.063 365.785 390.396 386.782 390.502C407.885 390.608 424.958 388.381 424.958 385.624C424.958 382.761 407.885 380.428 386.888 380.322C365.785 380.11 348.712 382.337 348.712 385.2Z" fill="black"/>
<path d="M349.772 385.2C349.772 387.957 366.528 390.29 387.312 390.396C407.991 390.502 424.852 388.381 424.852 385.624C424.852 382.867 408.097 380.534 387.312 380.428C366.528 380.322 349.772 382.443 349.772 385.2Z" fill="black"/>
<path d="M350.939 385.2C350.939 387.957 367.482 390.29 387.843 390.396C408.203 390.502 424.746 388.381 424.746 385.624C424.746 382.867 408.203 380.534 387.843 380.428C367.482 380.322 350.939 382.443 350.939 385.2Z" fill="black"/>
<path d="M352.105 385.2C352.105 387.851 368.33 390.184 388.373 390.29C408.415 390.396 424.64 388.275 424.746 385.624C424.746 382.973 408.521 380.64 388.479 380.534C368.33 380.428 352.105 382.549 352.105 385.2Z" fill="black"/>
<path d="M424.656 385.587C424.671 382.951 408.683 380.724 388.946 380.613C369.209 380.502 353.197 382.548 353.182 385.184C353.167 387.819 369.155 390.046 388.892 390.157C408.629 390.269 424.641 388.222 424.656 385.587Z" fill="black"/>
<path d="M354.332 385.2C354.332 387.851 370.027 389.972 389.433 390.078C408.839 390.184 424.534 388.169 424.534 385.518C424.534 382.867 408.839 380.746 389.433 380.64C370.027 380.534 354.332 382.655 354.332 385.2Z" fill="black"/>
<path d="M355.499 385.2C355.499 387.745 370.875 389.866 389.963 390.078C409.051 390.184 424.428 388.169 424.428 385.624C424.428 383.079 409.051 380.958 389.963 380.746C370.875 380.64 355.499 382.655 355.499 385.2Z" fill="black"/>
<path d="M356.559 385.2C356.559 387.745 371.724 389.866 390.388 389.972C409.051 390.078 424.322 388.169 424.322 385.624C424.322 383.079 409.157 380.958 390.494 380.852C371.83 380.746 356.559 382.655 356.559 385.2Z" fill="black"/>
<path d="M357.726 385.2C357.726 387.639 372.572 389.76 391.024 389.866C409.37 389.972 424.322 388.063 424.322 385.624C424.322 383.185 409.476 381.064 391.024 380.958C372.678 380.852 357.726 382.761 357.726 385.2Z" fill="black"/>
<path d="M358.892 385.2C358.892 387.639 373.526 389.654 391.554 389.76C409.581 389.866 424.216 387.957 424.216 385.518C424.216 383.079 409.581 381.064 391.554 380.958C373.526 380.958 358.892 382.761 358.892 385.2Z" fill="black"/>
<path d="M359.953 385.2C359.953 387.533 374.269 389.548 391.978 389.654C409.688 389.76 424.11 387.957 424.11 385.518C424.11 383.185 409.794 381.17 392.084 381.064C374.375 381.064 360.059 382.867 359.953 385.2Z" fill="black"/>
<path d="M361.119 385.2C361.119 387.533 375.223 389.548 392.508 389.654C409.9 389.76 424.004 387.957 424.004 385.624C424.004 383.291 409.9 381.276 392.614 381.17C375.223 381.064 361.119 382.867 361.119 385.2Z" fill="black"/>
<path d="M362.286 385.2C362.286 387.533 376.071 389.442 393.145 389.548C410.218 389.654 424.004 387.851 424.004 385.624C424.004 383.397 410.218 381.382 393.145 381.276C376.071 381.17 362.286 382.973 362.286 385.2Z" fill="black"/>
<path d="M363.346 385.306C363.346 387.533 376.92 389.442 393.569 389.548C410.324 389.654 423.791 387.851 423.897 385.624C423.897 383.397 410.324 381.488 393.675 381.382C376.92 381.276 363.452 382.973 363.346 385.306Z" fill="black"/>
<path d="M364.513 385.306C364.513 387.533 377.768 389.336 394.099 389.442C410.43 389.548 423.792 387.851 423.792 385.624C423.792 383.397 410.536 381.594 394.205 381.488C377.874 381.382 364.513 383.079 364.513 385.306Z" fill="black"/>
<path d="M423.758 385.558C423.77 383.391 410.771 381.561 394.724 381.47C378.676 381.38 365.658 383.063 365.645 385.23C365.633 387.397 378.632 389.227 394.679 389.317C410.727 389.408 423.746 387.725 423.758 385.558Z" fill="black"/>
<path d="M366.845 385.306C366.845 387.427 379.571 389.23 395.265 389.336C410.96 389.442 423.685 387.745 423.685 385.73C423.685 383.609 410.96 381.806 395.265 381.7C379.571 381.488 366.845 383.185 366.845 385.306Z" fill="black"/>
<path d="M367.906 385.306C367.906 387.321 380.313 389.124 395.69 389.23C411.066 389.336 423.579 387.745 423.579 385.624C423.579 383.609 411.172 381.806 395.796 381.7C380.419 381.594 367.906 383.185 367.906 385.306Z" fill="black"/>
<path d="M369.073 385.306C369.073 387.321 381.268 389.018 396.326 389.124C411.384 389.23 423.579 387.639 423.579 385.624C423.579 383.609 411.384 381.913 396.326 381.807C381.268 381.701 369.073 383.291 369.073 385.306Z" fill="black"/>
<path d="M370.239 385.306C370.239 387.321 382.116 388.912 396.856 389.018C411.596 389.124 423.473 387.533 423.473 385.624C423.473 383.609 411.596 382.019 396.856 381.913C382.116 381.807 370.239 383.291 370.239 385.306Z" fill="black"/>
<path d="M371.299 385.306C371.299 387.215 382.964 388.912 397.28 388.912C411.702 389.018 423.261 387.533 423.367 385.518C423.367 383.609 411.702 381.913 397.386 381.913C382.964 381.913 371.299 383.397 371.299 385.306Z" fill="black"/>
<path d="M372.466 385.306C372.466 387.215 383.813 388.806 397.811 388.912C411.809 389.018 423.261 387.533 423.261 385.624C423.261 383.715 411.915 382.125 397.917 382.019C383.813 381.913 372.466 383.397 372.466 385.306Z" fill="black"/>
<path d="M373.633 385.306C373.633 387.109 384.767 388.699 398.447 388.805C412.127 388.911 423.261 387.427 423.261 385.624C423.261 383.821 412.127 382.231 398.447 382.125C384.767 382.019 373.633 383.503 373.633 385.306Z" fill="black"/>
<path d="M374.693 385.306C374.693 387.109 385.51 388.593 398.871 388.699C412.233 388.805 423.049 387.427 423.049 385.624C423.049 383.821 412.233 382.337 398.871 382.231C385.616 382.125 374.693 383.503 374.693 385.306Z" fill="black"/>
<path d="M423.081 385.534C423.091 383.777 412.511 382.293 399.451 382.22C386.39 382.146 375.795 383.511 375.785 385.268C375.775 387.025 386.354 388.509 399.415 388.582C412.475 388.656 423.071 387.291 423.081 385.534Z" fill="black"/>
<path d="M377.026 385.306C377.026 387.003 387.312 388.487 400.038 388.487C412.763 388.593 423.049 387.215 423.049 385.518C423.049 383.821 412.763 382.337 400.038 382.337C387.312 382.337 377.026 383.609 377.026 385.306Z" fill="black"/>
<path d="M422.859 385.529C422.869 383.889 412.858 382.503 400.501 382.433C388.143 382.364 378.118 383.636 378.109 385.276C378.099 386.916 388.11 388.302 400.467 388.372C412.825 388.441 422.85 387.168 422.859 385.529Z" fill="black"/>
<path d="M422.749 385.526C422.758 383.886 413.033 382.502 401.026 382.434C389.02 382.366 379.28 383.641 379.27 385.281C379.261 386.921 388.987 388.305 400.993 388.373C412.999 388.44 422.739 387.166 422.749 385.526Z" fill="black"/>
<path d="M380.419 385.306C380.419 386.897 389.857 388.169 401.628 388.275C413.293 388.381 422.837 387.109 422.837 385.518C422.837 383.928 413.399 382.655 401.628 382.549C389.857 382.549 380.419 383.821 380.419 385.306Z" fill="black"/>
<path d="M381.48 385.306C381.48 386.791 390.706 388.169 402.052 388.169C413.399 388.275 422.625 387.003 422.625 385.518C422.625 384.034 413.399 382.655 402.052 382.655C390.706 382.655 381.586 383.821 381.48 385.306Z" fill="black"/>
<path d="M382.646 385.412C382.646 386.897 391.554 388.169 402.583 388.169C413.612 388.275 422.519 387.109 422.519 385.624C422.519 384.14 413.612 382.867 402.583 382.867C391.66 382.761 382.646 383.927 382.646 385.412Z" fill="black"/>
<path d="M383.813 385.412C383.813 386.897 392.508 388.063 403.113 388.169C413.823 388.275 422.519 387.109 422.519 385.73C422.519 384.246 413.823 383.079 403.219 382.973C392.508 382.867 383.813 383.927 383.813 385.412Z" fill="black"/>
<path d="M384.979 385.412C384.979 386.791 393.357 387.957 403.749 388.063C414.142 388.169 422.519 387.003 422.519 385.624C422.519 384.246 414.142 383.079 403.749 382.973C393.357 382.867 384.979 384.033 384.979 385.412Z" fill="black"/>
<path d="M386.04 385.412C386.04 386.791 394.205 387.851 404.173 387.957C414.247 388.063 422.307 387.003 422.307 385.624C422.307 384.246 414.141 383.185 404.173 383.079C394.205 382.973 386.04 384.033 386.04 385.412Z" fill="black"/>
<path d="M387.206 385.412C387.206 386.685 395.053 387.851 404.703 387.851C414.353 387.957 422.307 386.897 422.307 385.624C422.307 384.352 414.46 383.185 404.809 383.185C395.053 383.079 387.206 384.033 387.206 385.412Z" fill="black"/>
<path d="M422.287 385.612C422.294 384.382 414.704 383.342 405.333 383.289C395.962 383.236 388.36 384.19 388.353 385.42C388.346 386.65 395.937 387.69 405.308 387.743C414.678 387.796 422.28 386.842 422.287 385.612Z" fill="black"/>
<path d="M389.433 385.412C389.433 386.579 396.75 387.639 405.764 387.745C414.778 387.745 422.095 386.897 422.095 385.624C422.095 384.458 414.778 383.397 405.764 383.291C396.75 383.291 389.433 384.139 389.433 385.412Z" fill="black"/>
<path d="M390.6 385.412C390.6 386.579 397.599 387.533 406.294 387.639C414.99 387.639 421.989 386.791 421.989 385.624C421.989 384.458 414.99 383.503 406.294 383.397C397.705 383.291 390.6 384.246 390.6 385.412Z" fill="black"/>
<path d="M391.766 385.412C391.766 386.578 398.553 387.533 406.931 387.533C415.308 387.533 422.095 386.685 422.095 385.624C422.095 384.458 415.308 383.503 406.931 383.503C398.553 383.397 391.766 384.246 391.766 385.412Z" fill="black"/>
<path d="M392.827 385.412C392.827 386.473 399.295 387.427 407.355 387.427C415.414 387.427 421.883 386.685 421.883 385.518C421.883 384.458 415.414 383.503 407.355 383.503C399.401 383.503 392.827 384.352 392.827 385.412Z" fill="black"/>
<path d="M393.993 385.412C393.993 386.473 400.25 387.321 407.885 387.321C415.52 387.321 421.777 386.579 421.777 385.518C421.777 384.458 415.52 383.609 407.885 383.609C400.25 383.609 393.993 384.352 393.993 385.412Z" fill="black"/>
<path d="M395.159 385.412C395.159 386.366 401.098 387.215 408.415 387.321C415.732 387.321 421.777 386.579 421.777 385.624C421.777 384.67 415.838 383.821 408.521 383.715C401.098 383.715 395.159 384.458 395.159 385.412Z" fill="black"/>
<path d="M396.22 385.412C396.22 386.366 401.946 387.109 408.945 387.215C415.944 387.321 421.671 386.473 421.671 385.624C421.671 384.776 415.944 383.927 408.945 383.821C401.946 383.715 396.22 384.458 396.22 385.412Z" fill="black"/>
<path d="M397.386 385.412C397.386 386.26 402.795 387.109 409.476 387.109C416.156 387.109 421.565 386.473 421.565 385.518C421.565 384.67 416.156 383.821 409.476 383.821C402.795 383.821 397.386 384.564 397.386 385.412Z" fill="black"/>
<path d="M398.553 385.412C398.553 386.26 403.643 387.003 410.006 387.003C416.369 387.003 421.459 386.366 421.459 385.518C421.459 384.67 416.369 383.927 410.006 383.927C403.643 383.927 398.553 384.564 398.553 385.412Z" fill="black"/>
<path d="M399.614 385.412C399.614 386.26 404.492 386.897 410.536 386.897C416.581 386.897 421.459 386.261 421.459 385.518C421.459 384.67 416.581 384.034 410.536 384.034C404.598 384.034 399.72 384.67 399.614 385.412Z" fill="black"/>
<path d="M400.78 385.412C400.78 386.154 405.34 386.791 411.066 386.897C416.793 386.897 421.353 386.366 421.353 385.624C421.353 384.882 416.793 384.246 411.066 384.14C405.446 384.14 400.78 384.67 400.78 385.412Z" fill="black"/>
<path d="M401.946 385.412C401.946 386.154 406.294 386.685 411.596 386.791C416.899 386.791 421.246 386.26 421.246 385.518C421.246 384.776 416.899 384.246 411.596 384.14C406.294 384.14 401.946 384.776 401.946 385.412Z" fill="black"/>
<path d="M403.113 385.518C403.113 386.154 407.142 386.791 412.233 386.791C417.217 386.791 421.352 386.26 421.352 385.624C421.352 384.988 417.323 384.352 412.233 384.352C407.142 384.245 403.113 384.776 403.113 385.518Z" fill="black"/>
<path d="M404.173 385.518C404.173 386.155 407.991 386.685 412.657 386.685C417.323 386.685 421.14 386.261 421.14 385.624C421.14 384.988 417.323 384.458 412.657 384.458C407.991 384.352 404.173 384.882 404.173 385.518Z" fill="black"/>
<path d="M405.34 385.518C405.34 386.154 408.839 386.579 413.187 386.579C417.535 386.579 421.034 386.154 421.034 385.518C421.034 384.882 417.535 384.458 413.187 384.458C408.839 384.458 405.34 384.882 405.34 385.518Z" fill="black"/>
<path d="M406.506 385.518C406.506 386.048 409.794 386.473 413.717 386.579C417.747 386.579 420.928 386.154 421.034 385.624C421.034 385.094 417.747 384.67 413.823 384.564C409.688 384.564 406.506 384.988 406.506 385.518Z" fill="black"/>
<path d="M407.567 385.518C407.567 386.048 410.536 386.473 414.248 386.473C417.959 386.473 420.929 386.154 420.929 385.624C420.929 385.094 417.959 384.67 414.248 384.67C410.536 384.67 407.567 384.988 407.567 385.518Z" fill="black"/>
<path d="M408.733 385.518C408.733 385.942 411.491 386.366 414.778 386.366C418.171 386.366 420.822 386.048 420.822 385.624C420.822 385.2 418.065 384.776 414.778 384.776C411.491 384.67 408.733 385.094 408.733 385.518Z" fill="black"/>
<path d="M409.899 385.518C409.899 385.942 412.338 386.26 415.308 386.26C418.277 386.26 420.716 385.942 420.716 385.518C420.716 385.094 418.277 384.776 415.308 384.776C412.338 384.776 409.899 385.094 409.899 385.518Z" fill="black"/>
<path d="M410.96 385.518C410.96 385.836 413.081 386.154 415.838 386.154C418.595 386.154 420.716 385.942 420.716 385.518C420.716 385.2 418.595 384.882 415.838 384.882C413.187 384.882 410.96 385.2 410.96 385.518Z" fill="black"/>
<path d="M412.126 385.518C412.126 385.836 414.035 386.048 416.368 386.154C418.701 386.154 420.61 385.942 420.61 385.624C420.61 385.306 418.701 385.094 416.368 384.988C414.035 384.988 412.126 385.2 412.126 385.518Z" fill="black"/>
<path d="M413.293 385.518C413.293 385.836 414.884 386.048 416.899 386.048C418.914 386.048 420.504 385.836 420.504 385.624C420.504 385.306 418.914 385.094 416.899 385.094C414.884 385.094 413.293 385.306 413.293 385.518Z" fill="black"/>
<path d="M414.354 385.518C414.354 385.73 415.732 385.942 417.429 385.942C419.126 385.942 420.504 385.73 420.504 385.518C420.504 385.306 419.126 385.094 417.429 385.094C415.732 385.094 414.354 385.306 414.354 385.518Z" fill="black"/>
<path d="M415.52 385.518C415.52 385.73 416.581 385.836 417.959 385.836C419.338 385.836 420.398 385.73 420.398 385.518C420.398 385.306 419.338 385.2 417.959 385.2C416.581 385.2 415.52 385.306 415.52 385.518Z" fill="black"/>
<path d="M416.687 385.518C416.687 385.624 417.535 385.73 418.49 385.73C419.444 385.73 420.293 385.624 420.293 385.518C420.293 385.412 419.444 385.306 418.49 385.306C417.429 385.306 416.687 385.412 416.687 385.518Z" fill="black"/>
<path d="M417.747 385.518C417.747 385.624 418.277 385.73 418.914 385.73C419.55 385.73 420.08 385.624 420.08 385.624C420.08 385.518 419.55 385.412 418.914 385.412C418.383 385.412 417.747 385.412 417.747 385.518Z" fill="black"/>
<path d="M418.913 385.518C418.913 385.518 419.231 385.624 419.549 385.624C419.867 385.624 420.186 385.624 420.186 385.518C420.186 385.518 419.867 385.412 419.549 385.412C419.231 385.518 418.913 385.518 418.913 385.518Z" fill="black"/>
</g>
</g>
<g opacity="0.5">
<path d="M478.724 189.654L498.66 178.519L508.522 181.276L488.692 192.411L478.724 189.654Z" fill="#7BDAFF"/>
<path d="M483.495 127.512L480.632 137.798L460.696 149.039L463.665 138.752L483.495 127.512Z" fill="#7BDAFF"/>
<path d="M588.373 136.526L568.437 147.66L571.194 137.798L591.131 126.663L588.373 136.526Z" fill="#7BDAFF"/>
<path d="M477.133 150.523L471.406 170.778L485.934 174.914L465.998 186.154L451.47 182.019L457.196 161.764L477.133 150.523Z" fill="#7BDAFF"/>
<path d="M574.8 125.073L578.83 110.545L512.552 91.8806L532.488 80.6399L598.766 99.3037L594.63 113.938L574.8 125.073Z" fill="#7BDAFF"/>
<path d="M527.928 186.685L555.287 194.426L562.922 166.96L582.859 155.826L566.422 214.362L507.991 197.925L527.928 186.685Z" fill="#7BDAFF"/>
<path d="M519.762 77.1404L499.826 88.2751L493.569 91.7746L473.633 103.015L483.813 66.9601L519.762 77.1404Z" fill="#7BDAFF"/>
<path d="M489.964 104.5L487.1 114.786L467.164 126.027L470.133 115.741L489.964 104.5Z" fill="#7BDAFF"/>
</g>
<path d="M385.51 176.928H424.004L437.896 190.82H399.401L385.51 176.928ZM422.837 179.791H392.615L400.568 187.745H430.791L422.837 179.791Z" fill="white"/>
<path d="M406.082 98.8794H444.577L430.261 113.195H391.766L406.082 98.8794ZM437.578 101.849H407.355L398.977 110.226H429.2L437.578 101.849Z" fill="white"/>
<path d="M547.864 176.928H586.464L572.572 190.714H534.078L547.864 176.928ZM579.359 179.791H549.136L541.183 187.745H571.406L579.359 179.791Z" fill="white"/>
<path d="M356.771 148.19L380.631 124.33H419.126L395.265 148.19L412.869 165.794H374.375L356.771 148.19ZM391.13 148.19L412.127 127.193H381.904L360.907 148.19L375.541 162.824H405.764L391.13 148.19Z" fill="white"/>
<path d="M576.602 148.19L501.84 73.4287H540.335L615.096 148.19L597.493 165.794H558.998L576.602 148.19ZM610.96 148.19L539.168 76.3979H508.945L580.738 148.19L566.103 162.824H596.326L610.96 148.19Z" fill="white"/>
<path d="M417.747 209.166H456.241L485.934 238.858L515.626 209.166H554.121L485.934 277.353L417.747 209.166ZM516.793 212.135L485.934 242.994L455.075 212.135H424.852L485.934 273.217L547.016 212.135H516.793Z" fill="white"/>
<path d="M485.934 19.0277L529.2 62.294H442.562L485.934 19.0277ZM485.934 23.1635L449.773 59.3247H522.095L485.934 23.1635Z" fill="white"/>
<path d="M431.533 73.4287H470.027L455.711 87.7447H417.217L431.533 73.4287ZM463.028 76.3979H432.805L424.428 84.7754H454.651L463.028 76.3979Z" fill="white"/>
<g opacity="0.5">
<path d="M0.779427 103.227C0.779427 103.121 0.885478 103.121 0.885478 103.015C0.885478 103.015 0.885477 102.909 0.991521 102.909C0.991521 102.909 0.99152 102.803 1.09756 102.803C1.83988 100.894 3.11242 99.4095 4.59704 98.4551L5.02121 98.243L56.771 68.3384L108.521 38.4339L108.945 38.2218C110.43 37.3734 111.914 37.3734 113.187 38.0097C113.187 38.0097 113.293 38.0097 113.293 38.1157C113.293 38.1157 113.399 38.1157 113.399 38.2218L120.186 42.1455L116.262 43.8421L129.942 116.271C130.26 118.179 129.942 120.194 129.2 122.103C129.2 122.103 129.2 122.209 129.093 122.209C129.093 122.209 129.093 122.315 128.987 122.315C128.245 124.224 126.973 125.709 125.488 126.663L22.3065 186.048L23.2609 190.608L16.7922 186.896C16.7922 186.896 16.6861 186.896 16.6861 186.79C15.4136 186.154 14.4592 184.775 14.1411 182.867L0.143161 108.741C-0.174973 106.939 0.0371144 105.03 0.779427 103.227Z" fill="white"/>
<path d="M27.9266 190.608L132.275 130.375C135.456 128.572 137.365 123.694 136.516 119.452L122.73 46.3873C121.988 42.1455 118.701 40.2366 115.626 42.0394L11.2776 102.273C8.09622 104.075 6.18742 108.954 7.03578 113.195L20.8216 186.26C21.5639 190.502 24.7452 192.411 27.9266 190.608Z" fill="url(#paint0_linear_104_30)"/>
<path d="M11.7018 101.955L63.4516 72.0499L79.6764 157.946L28.4568 190.184C25.0634 192.093 21.67 190.502 21.0337 186.684L7.0358 112.559C6.0814 108.741 8.30834 103.969 11.7018 101.955Z" fill="url(#paint1_linear_104_30)"/>
<path d="M115.095 42.2514L63.3455 72.156L79.4642 157.522L131.744 130.587C135.138 128.678 137.259 123.906 136.516 119.982L122.518 45.8569C121.882 41.9333 118.489 40.3426 115.095 42.2514Z" fill="url(#paint2_linear_104_30)"/>
<path d="M135.88 125.497C135.032 127.617 133.547 129.526 131.744 130.587L28.3509 190.29C26.5481 191.35 24.7454 191.35 23.2607 190.502L69.6023 105.136L135.88 125.497Z" fill="url(#paint3_linear_104_30)"/>
<path d="M7.45996 107.045C8.30832 104.924 9.79295 103.015 11.5957 101.955L114.989 42.2516C116.792 41.1911 118.595 41.1911 120.079 42.0395L73.7379 127.405L7.45996 107.045Z" fill="url(#paint4_linear_104_30)"/>
</g>
<path d="M483.919 166.112C483.813 165.9 483.813 165.794 483.707 165.581C483.707 165.475 483.6 165.369 483.6 165.157C483.494 165.051 483.494 164.945 483.388 164.733C481.374 160.067 478.298 156.037 474.587 153.917L473.526 153.28L342.879 77.7765L212.126 2.37879L211.066 1.74249C207.248 -0.484451 203.43 -0.484451 200.249 1.21226C200.143 1.21226 200.037 1.31835 200.037 1.31835C199.931 1.31835 199.825 1.42437 199.825 1.42437L182.54 11.3926L192.508 15.6344L158.043 198.561C157.195 203.333 157.937 208.53 159.952 213.196C159.952 213.302 160.058 213.408 160.164 213.62C160.27 213.726 160.27 213.832 160.27 213.938C162.285 218.604 165.36 222.634 169.072 224.754L429.624 375.232L427.185 386.685L443.516 377.247C443.622 377.247 443.728 377.141 443.728 377.141C446.909 375.444 449.348 372.05 450.196 367.384L485.615 180.11C486.464 175.656 485.721 170.566 483.919 166.112Z" fill="white"/>
<path d="M415.52 386.897L151.999 234.723C144.045 230.163 139.167 217.756 141.182 207.151L176.071 22.4213C178.086 11.8168 186.145 6.93878 194.098 11.4987L457.619 163.673C465.573 168.233 470.451 180.64 468.436 191.244L433.653 375.868C431.532 386.579 423.473 391.457 415.52 386.897Z" fill="url(#paint5_linear_104_30)"/>
<path d="M456.559 163.142L325.912 87.6387L284.979 304.712L414.459 386.26C423.049 391.245 431.426 387.215 433.335 377.353L468.648 190.078C470.557 180.11 465.043 168.021 456.559 163.142Z" fill="url(#paint6_linear_104_30)"/>
<path d="M195.265 12.1349L325.912 87.6387L285.191 303.334L153.165 235.253C144.576 230.269 139.167 218.286 141.076 208.424L176.389 21.1487C178.192 11.1805 186.676 7.25686 195.265 12.1349Z" fill="url(#paint7_linear_104_30)"/>
<path d="M142.667 222.528C144.788 227.83 148.499 232.602 153.165 235.253L414.459 386.154C419.125 388.806 423.685 388.912 427.185 386.791L310.111 171.202L142.667 222.528Z" fill="url(#paint8_linear_104_30)"/>
<path d="M466.952 175.868C464.831 170.566 461.119 165.794 456.453 163.143L195.265 12.1349C190.599 9.48383 186.039 9.37781 182.54 11.4987L299.613 227.194L466.952 175.868Z" fill="url(#paint9_linear_104_30)"/>
<path d="M21.1019 224.302L23.5764 221.827L21.1019 219.353L18.6275 221.827L21.1019 224.302Z" fill="white"/>
<path d="M12.2548 224.277L14.7292 221.802L12.2547 219.328L9.78026 221.802L12.2548 224.277Z" fill="white"/>
<path d="M16.7125 219.812L19.187 217.338L16.7125 214.864L14.2381 217.338L16.7125 219.812Z" fill="white"/>
<path d="M16.6437 228.766L19.1182 226.292L16.6437 223.817L14.1692 226.292L16.6437 228.766Z" fill="white"/>
<defs>
<filter id="filter0_f_104_30" x="119.445" y="349.428" width="334.985" height="70.9701" filterUnits="userSpaceOnUse" color-interpolation-filters="sRGB">
<feFlood flood-opacity="0" result="BackgroundImageFix"/>
<feBlend mode="normal" in="SourceGraphic" in2="BackgroundImageFix" result="shape"/>
<feGaussianBlur stdDeviation="7.5" result="effect1_foregroundBlur_104_30"/>
</filter>
<linearGradient id="paint0_linear_104_30" x1="129.562" y1="82.8775" x2="5.64464" y2="106.253" gradientUnits="userSpaceOnUse">
<stop stop-color="#7BDAFF"/>
<stop offset="1" stop-color="#59BDEF"/>
</linearGradient>
<linearGradient id="paint1_linear_104_30" x1="2.32188" y1="247.277" x2="65.0853" y2="128.751" gradientUnits="userSpaceOnUse">
<stop offset="0.7677" stop-color="#59BDEF"/>
<stop offset="0.8452" stop-color="#55B8EB"/>
<stop offset="0.9318" stop-color="#49ABE1"/>
<stop offset="1" stop-color="#3A9BD5"/>
</linearGradient>
<linearGradient id="paint2_linear_104_30" x1="172.087" y1="149.085" x2="84.4663" y2="111.858" gradientUnits="userSpaceOnUse">
<stop offset="0.7677" stop-color="#59BDEF"/>
<stop offset="0.8452" stop-color="#55B8EB"/>
<stop offset="0.9318" stop-color="#49ABE1"/>
<stop offset="1" stop-color="#3A9BD5"/>
</linearGradient>
<linearGradient id="paint3_linear_104_30" x1="96.5748" y1="248.157" x2="34.0854" y2="139.967" gradientUnits="userSpaceOnUse">
<stop offset="0.7677" stop-color="#3A9BD5"/>
<stop offset="0.8386" stop-color="#3896D2"/>
<stop offset="0.9179" stop-color="#3189C9"/>
<stop offset="1" stop-color="#2573BA"/>
</linearGradient>
<linearGradient id="paint4_linear_104_30" x1="98.5193" y1="31.2196" x2="-17.7181" y2="119.63" gradientUnits="userSpaceOnUse">
<stop stop-color="#7BDAFF"/>
<stop offset="1" stop-color="#59BDEF"/>
</linearGradient>
<linearGradient id="paint5_linear_104_30" x1="158.665" y1="114.773" x2="471.703" y2="173.823" gradientUnits="userSpaceOnUse">
<stop stop-color="#7BDAFF"/>
<stop offset="1" stop-color="#59BDEF"/>
</linearGradient>
<linearGradient id="paint6_linear_104_30" x1="480.097" y1="530.075" x2="321.545" y2="230.657" gradientUnits="userSpaceOnUse">
<stop offset="0.7677" stop-color="#59BDEF"/>
<stop offset="0.8452" stop-color="#55B8EB"/>
<stop offset="0.9318" stop-color="#49ABE1"/>
<stop offset="1" stop-color="#3A9BD5"/>
</linearGradient>
<linearGradient id="paint7_linear_104_30" x1="51.2406" y1="282.025" x2="272.585" y2="187.982" gradientUnits="userSpaceOnUse">
<stop offset="0.7677" stop-color="#59BDEF"/>
<stop offset="0.8452" stop-color="#55B8EB"/>
<stop offset="0.9318" stop-color="#49ABE1"/>
<stop offset="1" stop-color="#3A9BD5"/>
</linearGradient>
<linearGradient id="paint8_linear_104_30" x1="241.997" y1="532.297" x2="399.856" y2="258.991" gradientUnits="userSpaceOnUse">
<stop offset="0.7677" stop-color="#3A9BD5"/>
<stop offset="0.8386" stop-color="#3896D2"/>
<stop offset="0.9179" stop-color="#3189C9"/>
<stop offset="1" stop-color="#2573BA"/>
</linearGradient>
<linearGradient id="paint9_linear_104_30" x1="237.085" y1="-15.7253" x2="530.721" y2="207.615" gradientUnits="userSpaceOnUse">
<stop stop-color="#7BDAFF"/>
<stop offset="1" stop-color="#59BDEF"/>
</linearGradient>
</defs>
</svg>
